HIERARCHY
ROOT Hips
{
  OFFSET 0 89.5177 0.535
  CHANNELS 6 Xposition Yposition Zposition Zrotation Xrotation Yrotation
  JOINT Spine
  {
    OFFSET 12.0259 -0.162855 1.69034e-005
    CHANNELS 3 Zrotation Xrotation Yrotation
    JOINT Spine1
    {
      OFFSET 15.3169 -0.0121922 0
      CHANNELS 3 Zrotation Xrotation Yrotation
      JOINT Spine2
      {
        OFFSET 15.3176 -0.0121908 0
        CHANNELS 3 Zrotation Xrotation Yrotation
        JOINT Neck
        {
          OFFSET 19.9142 1.56338 0
          CHANNELS 3 Zrotation Xrotation Yrotation
          JOINT Head
          {
            OFFSET 6.92651 0 0
            CHANNELS 3 Zrotation Xrotation Yrotation
            End Site
            {
              OFFSET 20.7666 0 0
            }
          }
          JOINT LeftShoulder
          {
            OFFSET -6.20654 0.708824 7.28219
            CHANNELS 3 Zrotation Xrotation Yrotation
            JOINT LeftArm
            {
              OFFSET 14.108 0 -1.52588e-005
              CHANNELS 3 Zrotation Xrotation Yrotation
              JOINT LeftForeArm
              {
                OFFSET 28.5802 0 0
                CHANNELS 3 Zrotation Xrotation Yrotation
                JOINT LeftHand
                {
                  OFFSET 27.092 0 0
                  CHANNELS 3 Zrotation Xrotation Yrotation
                  End Site
                  {
                    OFFSET 9.55928 -0.186424 0.145352
                  }
                }
              }
            }
          }
          JOINT RightShoulder
          {
            OFFSET -6.20654 0.708866 -7.28218
            CHANNELS 3 Zrotation Xrotation Yrotation
            JOINT RightArm
            {
              OFFSET 14.108 0 1.52588e-005
              CHANNELS 3 Zrotation Xrotation Yrotation
              JOINT RightForeArm
              {
                OFFSET 28.5802 0 0
                CHANNELS 3 Zrotation Xrotation Yrotation
                JOINT RightHand
                {
                  OFFSET 27.092 0 0
                  CHANNELS 3 Zrotation Xrotation Yrotation
                  End Site
                  {
                    OFFSET 9.55929 -0.186417 -0.145354
                  }
                }
              }
            }
          }
        }
      }
    }
  }
  JOINT LeftUpLeg
  {
    OFFSET 0.005 -0.535 8.837
    CHANNELS 3 Zrotation Xrotation Yrotation
    JOINT LeftLeg
    {
      OFFSET 39.9035 0 0
      CHANNELS 3 Zrotation Xrotation Yrotation
      JOINT LeftFoot
      {
        OFFSET 39.6689 0 0
        CHANNELS 3 Zrotation Xrotation Yrotation
        JOINT LeftToe
        {
          OFFSET 10.1624 13.6296 0
          CHANNELS 3 Zrotation Xrotation Yrotation
          End Site
          {
            OFFSET 8.38147 0 0
          }
        }
      }
    }
  }
  JOINT RightUpLeg
  {
    OFFSET 0.005 -0.535 -8.837
    CHANNELS 3 Zrotation Xrotation Yrotation
    JOINT RightLeg
    {
      OFFSET 39.9035 0 0
      CHANNELS 3 Zrotation Xrotation Yrotation
      JOINT RightFoot
      {
        OFFSET 39.6689 0 0
        CHANNELS 3 Zrotation Xrotation Yrotation
        JOINT RightToe
        {
          OFFSET 10.1624 13.6296 0
          CHANNELS 3 Zrotation Xrotation Yrotation
          End Site
          {
            OFFSET 8.38147 0 0
          }
        }
      }
    }
  }
}
MOTION
Frames:	17
Frame Time:	0.0333333
550.455 83.7723 -202.364 111.583 55.9142 -20.5516 -1.09836 -1.58002 -1.18009 -2.23029 -3.13632 -2.39143 -2.23029 -3.13632 -2.39144 -8.30748e-012 -9.0191e-006 -5.27751e-005 1.21031 11.5558 0.843346 -179.133 -3.19286 -74.7952 -14.3157 15.6159 56.4236 -67.5657 1.59028e-015 6.36111e-015 -37.8495 -50.0347 -32.4004 -177.061 7.68244 68.9893 25.3109 -6.02491 -63.9958 -7.25892 0 3.18055e-015 -29.4323 38.9827 27.1896 -7.13183 2.10473 -177.17 -26.6632 0 -3.18055e-015 31.5492 2.80711 -0.63746 90 1.45594e-019 -6.36111e-015 -41.1898 -22.5521 175.795 -35.5164 3.18056e-015 -4.77083e-015 7.46406 -1.1062 -4.88232 90 -2.42657e-020 -0 
552.289 83.9175 -204.318 112.577 55.8876 -20.4504 -0.952364 -1.65057 -1.53757 -1.9499 -3.27428 -3.10412 -1.9499 -3.27428 -3.10412 -8.30748e-012 -9.0191e-006 -5.27751e-005 -0.820449 10.4855 2.59705 -179.519 -1.86297 -75.5176 -17.3351 14.9714 55.834 -65.5634 0 3.18055e-015 -37.2949 -49.4622 -31.2769 -177.02 7.72468 68.8328 23.4163 -6.97267 -66.8633 -9.02511 0 -3.18055e-015 -29.8848 42.1259 27.9498 -10.9739 2.59659 -178.504 -29.5429 -9.54166e-015 -1.59028e-015 31.0761 2.88389 -0.143065 90 -2.42657e-020 -9.54166e-015 -43.2132 -23.4036 174.53 -33.8928 0 3.97569e-015 6.45222 -2.30341 -5.53671 90 0 9.54166e-015 
554.054 83.9989 -206.191 113.088 55.2022 -20.4523 -0.855941 -1.5773 -1.71227 -1.75964 -3.12765 -3.44969 -1.75964 -3.12765 -3.4497 -8.31225e-012 -9.0191e-006 -5.27751e-005 -1.8298 9.4457 3.43503 -179.728 -1.071 -75.7662 -20.1098 14.3674 55.1681 -63.5435 -1.59028e-015 -6.36111e-015 -36.7891 -49.8274 -30.9449 -177.188 7.46268 69.2826 19.2414 -8.94401 -69.6353 -12.1338 1.27222e-014 -6.36111e-015 -29.2606 44.8176 27.8399 -14.5556 3.73589 -179.024 -32.2428 0 -1.59028e-015 30.6837 3.32919 0.258312 90 -6.06643e-021 -3.18055e-015 -45.4441 -24.8352 173.645 -34.1106 9.54167e-015 5.1684e-015 9.95608 -4.63347 -5.88867 90 0 6.36111e-015 
555.797 84.1524 -207.902 113.259 53.9516 -19.4917 -0.744314 -1.34461 -1.94349 -1.53443 -2.6626 -3.90571 -1.53443 -2.6626 -3.90571 -8.30748e-012 -9.0191e-006 -5.27751e-005 -2.63845 8.5601 3.40884 -179.821 -0.682639 -75.3264 -22.42 13.4271 54.1991 -61.2546 3.18055e-015 3.18055e-015 -36.4586 -50.4479 -30.8798 -177.329 7.15059 69.4564 13.7356 -10.484 -71.5034 -16.2491 0 3.18055e-015 -28.4625 46.3674 27.0369 -17.2282 6.24981 -179.94 -33.4047 -3.18055e-015 1.59028e-015 29.6227 4.14087 0.671547 90 -1.81993e-020 -6.36111e-015 -47.4957 -25.2572 172.496 -34.2538 -3.18056e-015 4.77083e-015 13.2173 -6.54055 -5.61275 90 -7.95139e-016 -0 
557.313 84.4169 -209.587 112.737 52.6087 -18.5386 -0.585884 -1.08663 -2.0574 -1.21072 -2.15099 -4.12672 -1.21072 -2.15099 -4.12673 -8.30907e-012 -9.0191e-006 -5.27751e-005 -3.38275 7.9468 3.16494 -179.905 -0.349357 -74.8531 -23.0148 11.8535 53.8482 -57.8715 3.18055e-015 -6.36111e-015 -36.9227 -50.2028 -30.9671 -177.456 6.73718 69.2564 8.5427 -10.7424 -72.2306 -19.5871 -3.18055e-015 1.59028e-015 -27.8649 46.6131 25.9238 -19.1314 7.2644 179.7 -33.9664 -3.18055e-015 1.59028e-015 28.392 3.90699 1.12143 90 3.03321e-021 9.54166e-015 -47.1343 -25.135 172.652 -32.9938 -3.18056e-015 1.59028e-015 12.999 -6.1536 -5.70179 90 -1.59028e-015 -6.36111e-015 
558.554 84.7277 -211.05 111.801 51.104 -17.9696 -0.495422 -0.871602 -1.99333 -1.02103 -1.72494 -3.99463 -1.02103 -1.72494 -3.99464 -8.30748e-012 -9.0191e-006 -5.27751e-005 -3.3524 8.12459 2.51241 -179.979 -0.0770119 -74.7534 -21.5563 9.74337 54.657 -53.2712 4.77083e-015 9.54166e-015 -37.6358 -49.0732 -30.8083 -177.736 6.1317 69.6874 4.68745 -9.94237 -72.5243 -21.5753 6.36111e-015 -2.38542e-015 -28.2883 45.1717 25.466 -20.5813 8.17082 -179.841 -34.3314 6.36111e-015 4.77083e-015 27.3119 3.40408 1.50331 90 -1.51661e-020 1.27222e-014 -44.8866 -24.6865 173.731 -31.7832 -9.54167e-015 -0 11.088 -4.31272 -5.73359 90 7.95139e-016 6.36111e-015 
559.603 85.0148 -212.246 110.13 50.0642 -17.0129 -0.370996 -0.75032 -1.8526 -0.766145 -1.48777 -3.71032 -0.766145 -1.48777 -3.71033 -8.30907e-012 -9.0191e-006 -5.27751e-005 -2.47651 8.67143 1.76449 179.983 0.0625303 -74.6086 -19.1315 7.82991 56.042 -48.3342 0 -6.36111e-015 -39.6304 -48.3684 -33.1326 -177.954 5.71246 70.2558 2.33147 -8.4399 -71.9822 -23.0536 -6.36111e-015 7.95139e-016 -28.6388 42.2691 24.657 -21.1286 8.80639 -179.238 -34.5151 3.18055e-015 1.59028e-015 26.3529 3.06747 1.79093 90 -2.42657e-020 -9.54166e-015 -41.5965 -23.6849 174.464 -31.5603 -9.54167e-015 -0 9.49157 -2.75845 -4.7862 90 -7.95139e-016 -6.36111e-015 
560.557 85.1566 -213.303 108.883 49.0908 -15.976 -0.35732 -0.647463 -1.78448 -0.73469 -1.283 -3.57313 -0.73469 -1.283 -3.57313 -8.30748e-012 -9.0191e-006 -5.27751e-005 -1.60864 9.36762 1.45908 -179.969 -0.111348 -74.4428 -16.5743 6.27236 57.5454 -43.2308 -3.18055e-015 -0 -41.7575 -47.37 -35.8819 -178.07 5.48886 70.5932 1.15578 -6.81251 -70.6777 -24.5857 0 -3.18055e-015 -29.4096 40.6134 24.6203 -21.7325 9.63484 -179.013 -34.8034 -9.54166e-015 -4.77083e-015 25.5844 2.92856 2.03891 90 -2.42657e-020 6.36111e-015 -39.0564 -22.1778 173.976 -32.6226 0 -3.8763e-015 7.77092 -1.62289 -1.48504 90 -1.98785e-016 3.18055e-015 
561.31 85.2264 -214.264 108.085 48.2175 -15.1138 -0.428913 -0.545446 -1.74886 -0.874323 -1.07706 -3.50181 -0.874323 -1.07706 -3.50182 -8.30907e-012 -9.0191e-006 -5.27751e-005 -0.832516 9.71112 1.41075 -179.834 -0.584934 -74.1518 -14.5452 5.5882 58.6166 -38.551 -3.18055e-015 -3.18055e-015 -43.3142 -46.6673 -38.1017 -178.073 5.47351 70.5717 1.34453 -4.94729 -68.9181 -26.1666 -6.36111e-015 -3.97569e-015 -30.9858 40.5642 25.8432 -22.4548 10.7296 -178.824 -35.1103 9.54166e-015 1.59028e-015 24.9294 2.98001 2.16595 90 1.81993e-020 -6.36111e-015 -37.1811 -21.0362 173.102 -35.4004 0 -7.95139e-016 10.5679 -0.797215 -1.19756 90 9.93923e-017 -0 
561.886 85.2522 -215.18 107.724 47.6394 -14.6163 -0.555054 -0.455502 -1.71329 -1.12352 -0.893716 -3.43089 -1.12352 -0.893716 -3.4309 -8.30589e-012 -9.0191e-006 -5.27751e-005 -0.0932613 9.816 1.40172 -179.7 -1.03171 -73.8015 -13.2676 6.37959 59.0885 -35.1973 3.18055e-015 1.59028e-015 -43.6564 -46.2973 -39.1865 -177.987 5.65578 70.3699 2.53287 -3.03689 -67.2235 -27.8907 -6.36111e-015 4.77083e-015 -33.4571 41.8576 28.0371 -23.3157 11.3699 -178.649 -35.4848 -3.18055e-015 -1.59028e-015 24.3777 3.01063 2.20033 90 -3.03321e-021 -0 -37.1319 -19.9848 171.093 -40.8678 0 -0 13.2132 -0.120887 0.714062 90 3.97569e-016 -0 
562.292 85.2549 -216.016 107.236 47.3405 -13.9823 -0.655866 -0.371295 -1.69017 -1.32243 -0.722594 -3.38439 -1.32243 -0.722594 -3.3844 -8.30589e-012 -9.0191e-006 -5.27751e-005 0.946655 9.70179 1.16153 -179.552 -1.51239 -73.5038 -13.0501 8.5952 58.9767 -33.1292 -6.36111e-015 -1.59028e-015 -42.7186 -47.0248 -38.684 -177.936 5.7912 70.3482 4.28334 -1.45962 -66.2067 -29.8578 -9.54166e-015 1.39149e-015 -37.0897 43.6045 31.943 -23.9096 11.8337 -178.524 -35.8202 -3.18055e-015 -0 23.8706 3.12327 2.15202 90 9.09964e-021 -0 -35.5876 -19.1394 169.621 -44.2728 3.18056e-015 1.59028e-015 16.4158 0.833063 -0.258275 90 7.95139e-016 -3.18055e-015 
562.426 85.2591 -216.556 105.533 47.7186 -12.3617 -0.547862 -0.294167 -1.70202 -1.10423 -0.571451 -3.40666 -1.10423 -0.571451 -3.40666 -8.30589e-012 -9.0191e-006 -5.27751e-005 1.94101 8.78734 0.917334 -179.445 -1.86668 -73.4467 -13.4288 11.3475 58.7715 -31.7085 0 -0 -39.8041 -46.5837 -35.8195 -177.914 5.9271 70.5748 5.85157 -0.63412 -65.807 -32.2151 9.54166e-015 1.98785e-015 -40.9132 45.6413 36.3558 -23.0658 11.8497 -178.704 -35.8635 -6.36111e-015 -1.59028e-015 23.4864 3.16242 2.03626 90 -1.51661e-020 -0 -31.8585 -17.4066 168.668 -46.2991 -1.27222e-014 -9.54167e-015 19.7872 2.79872 -2.92591 90 0 -9.54166e-015 
562.64 85.2374 -217.432 105.151 47.262 -11.6361 -0.644056 -0.12754 -1.71055 -1.29163 -0.235324 -3.42227 -1.29163 -0.235324 -3.42228 -8.30748e-012 -9.0191e-006 -5.27751e-005 2.56551 8.03232 0.641001 -179.258 -2.44857 -73.143 -14.0851 14.4604 58.1662 -30.9687 -3.18055e-015 -0 -39.2398 -45.7443 -33.8444 -177.985 5.85296 70.968 6.7594 -0.486626 -65.7538 -34.4043 -6.36111e-015 -3.18055e-015 -44.6308 46.3781 40.5821 -23.5652 12.2498 -178.612 -36.0963 0 -0 23.0365 3.06478 1.83097 90 1.81993e-020 -6.36111e-015 -29.4723 -16.8284 167.576 -46.9105 0 3.18056e-015 21.5199 3.87497 -4.0083 90 -1.59028e-015 -0 
562.694 85.2344 -218.259 104.551 46.6244 -10.7756 -0.689689 0.0821639 -1.72738 -1.37658 0.18554 -3.45347 -1.37658 0.18554 -3.45348 -8.30748e-012 -9.0191e-006 -5.27751e-005 2.90656 7.22829 0.426751 -179.077 -3.00132 -72.9003 -14.1561 17.125 57.4682 -30.3798 -6.36111e-015 -0 -36.9905 -45.7647 -31.102 -177.987 5.97253 71.3314 6.43468 -0.646734 -65.867 -36.0601 -3.18055e-015 -0 -46.2892 46.678 42.2027 -23.7147 12.1932 -178.497 -36.1947 3.18055e-015 3.18055e-015 22.6809 2.53131 1.51084 90 -9.09964e-021 3.18055e-015 -26.5988 -16.5617 166.762 -46.1244 9.54167e-015 6.36111e-015 22.6635 4.39248 -4.07612 90 0 -9.54166e-015 
562.675 85.2085 -219.183 104.236 46.0781 -10.1353 -0.761082 0.24369 -1.75483 -1.51436 0.511016 -3.50614 -1.51436 0.511016 -3.50615 -8.30907e-012 -9.0191e-006 -5.27751e-005 3.18586 6.55112 0.102046 -178.887 -3.57598 -72.7027 -13.1609 18.731 56.612 -29.2854 6.36111e-015 3.18055e-015 -35.6336 -45.573 -29.2565 -178.025 5.936 71.5595 5.49265 -1.14537 -66.0326 -37.102 9.54166e-015 7.15625e-015 -46.1037 46.3756 41.7598 -24.2277 13.0669 -178.066 -36.3973 3.18055e-015 -3.18055e-015 22.2646 2.74462 1.13709 90 1.21329e-020 6.36111e-015 -23.7144 -16.4277 166.293 -44.3906 -3.18056e-015 -3.18056e-015 23.629 4.47785 -3.44999 90 -1.59028e-015 -3.18055e-015 
562.496 85.1468 -220.181 103.666 45.4845 -9.46791 -0.791759 0.424467 -1.75878 -1.57018 0.873461 -3.51151 -1.57018 0.873462 -3.51152 -8.3043e-012 -9.0191e-006 -5.27751e-005 3.73889 5.70812 -0.0782975 -178.748 -3.97616 -72.5102 -11.611 19.5994 55.6588 -27.868 -3.18055e-015 -0 -35.1658 -45.2283 -29.0506 -178.027 5.98335 71.7123 3.84802 -1.69491 -66.3734 -37.1551 0 -0 -45.1148 45.868 40.3748 -24.6242 13.1748 -177.456 -36.8319 0 1.59028e-015 22.0374 2.46953 0.587733 90 -1.81993e-020 -6.36111e-015 -20.4653 -16.0555 166.529 -42.0432 3.18056e-015 6.36111e-015 24.5779 4.39964 -2.54983 90 0 -0 
562.165 85.0572 -221.335 103.054 44.6023 -8.90127 -0.809942 0.657817 -1.74274 -1.59966 1.34036 -3.47619 -1.59966 1.34036 -3.4762 -8.30669e-012 -9.0191e-006 -5.27751e-005 3.75845 4.91939 -0.226148 -178.631 -4.29844 -72.3164 -9.57433 19.2504 54.5793 -25.5972 0 -1.59028e-015 -35.3249 -44.354 -28.9202 -178.074 5.86461 71.7804 2.13246 -2.20913 -66.8873 -36.3621 0 7.95139e-016 -43.3696 45.8344 38.252 -25.2157 13.7088 -176.321 -37.4548 0 3.18055e-015 21.882 2.3635 -0.139631 90 -9.09964e-021 3.18055e-015 -17.0622 -14.8196 167.675 -39.1467 -3.18056e-015 -0 25.7177 4.25181 -1.98581 90 0 -0 
